<svg xmlns="http://www.w3.org/2000/svg" xmlns:xlink="http://www.w3.org/1999/xlink" aria-hidden="true" role="img" class="iconify iconify--logos" width="31.88" height="32" preserveAspectRatio="xMidYMid meet" viewBox="0 0 256 257"><defs><linearGradient id="IconifyId1813088fe1fbc01fb466" x1="-.828%" x2="57.636%" y1="7.652%" y2="78.411%"><stop offset="0" stop-color="#41D1FF"/><stop offset="1" stop-color="#BD34FE"/></linearGradient><linearGradient id="IconifyId1813088fe1fbc01fb467" x1="43.376%" x2="50.316%" y1="2.242%" y2="89.03%"><stop offset="0" stop-color="#FFEA83"/><stop offset=".083" stop-color="#FFDD35"/><stop offset="1" stop-color="#FFA800"/></linearGradient></defs><path fill="url(#IconifyId1813088fe1fbc01fb466)" d="M255.153 37.938L134.897 252.976c-2.483 4.44-8.862 4.466-11.382.048L.875 37.958c-2.746-4.814 1.371-10.646 6.827-9.67l120.385 21.517a6.537 6.537 0 007.991-4.87l10.533-68.262c1.222-7.915 11.591-9.627 15.95-2.683L255.2 33.232c3.223 4.979.356 11.595-5.047 12.706z"/><path fill="url(#IconifyId1813088fe1fbc01fb467)" d="M185.432.063L96.44 17.501a3.268 3.268 0 00-2.634 3.014l-5.474 92.456a3.268 3.268 0 003.997 3.378l24.777-5.718c2.318-.535 4.413 1.507 3.936 3.838l-7.361 36.047c-.495 2.426 1.782 4.5 4.151 3.78l15.906-4.828c2.372-.72 4.652 1.36 4.15 3.788l-12.094 58.92c-1.02 4.982 5.478 7.676 8.167 3.612l56.53-89.143a3.268 3.268 0 00-2.786-5.018l-25.589.427c-2.446.041-3.501-3.124-1.794-4.684l31.225-28.398a3.268 3.268 0 00-1.853-5.63l-42.482-3.687a3.268 3.268 0 00-3.486 3.126l-1.596 35.032c-.209 4.594-6.718 5.116-8.134.593L130.08 30.827A3.268 3.268 0 00126.89 28l-56.826 2.692c-2.357.112-3.61 2.82-2.337 4.718l66.558 96.274a3.268 3.268 0 001.424 1.234l26.112 12.166c1.774.826 3.257-1.587 2.036-3.062L139.89 82.287a3.268 3.268 0 012.696-5.149l40.536 2.053c3.011.152 4.119-3.879 1.613-5.4L142.296 40.41a3.268 3.268 0 01.544-5.778l39.822-16.232c2.466-1.005 4.187 2.52 2.27 4.663L146.2 74.37a3.268 3.268 0 002.646 5.319l34.82-2.094c2.927-.176 4.034 3.844 1.55 5.462L155.64 108.05a3.268 3.268 0 00-.996 4.62l17.806 26.674c1.6 2.397-1.466 5.185-3.68 3.604l-27.798-19.49a3.268 3.268 0 00-4.146.363l-30.728 30.11a3.268 3.268 0 01-5.504-2.264l-4.597-69.137a3.268 3.268 0 013.916-3.36l50.65 9.535c2.588.487 3.83-3.287 1.66-4.91L134.628 31.93a3.268 3.268 0 011.478-5.868l49.18-9.22c2.456-.461 4.071 2.585 2.146 4.221z"/></svg>
